<svg width="3110" height="1174" viewBox="0 0 3110 1174" fill="none" xmlns="http://www.w3.org/2000/svg">
<path d="M22.1379 1112.06V941.26H125.594V963.22H46.0499V1016.9H115.346V1038.86H46.0499V1112.06H22.1379ZM151.189 1112.06V990.06H174.369V1112.06H151.189ZM162.901 964.196C159.16 964.196 155.906 962.813 153.141 960.048C150.376 957.12 148.993 953.785 148.993 950.044C148.993 946.14 150.376 942.886 153.141 940.284C155.906 937.518 159.16 936.136 162.901 936.136C166.805 936.136 170.058 937.518 172.661 940.284C175.426 942.886 176.809 946.14 176.809 950.044C176.809 953.785 175.426 957.12 172.661 960.048C170.058 962.813 166.805 964.196 162.901 964.196ZM208.342 1112.06V990.06H230.058L231.522 1012.51V1112.06H208.342ZM292.766 1112.06V1049.6H315.946V1112.06H292.766ZM292.766 1049.6C292.766 1038.53 291.465 1030.16 288.862 1024.46C286.422 1018.61 282.925 1014.54 278.37 1012.26C273.978 1009.99 268.854 1008.77 262.998 1008.6C253.076 1008.6 245.349 1012.1 239.818 1019.1C234.288 1026.09 231.522 1035.93 231.522 1048.62H221.518C221.518 1035.77 223.389 1024.79 227.13 1015.68C231.034 1006.41 236.484 999.332 243.478 994.452C250.636 989.572 259.094 987.132 268.854 987.132C278.452 987.132 286.748 989.084 293.742 992.988C300.9 996.892 306.349 1002.99 310.09 1011.29C313.994 1019.42 315.946 1030.16 315.946 1043.5V1049.6H292.766ZM434.42 1112.06L433.444 1089.37V941.26H456.38V1112.06H434.42ZM393.428 1114.99C382.366 1114.99 372.688 1112.3 364.392 1106.94C356.258 1101.57 349.833 1094.08 345.116 1084.49C340.561 1074.89 338.284 1063.75 338.284 1051.06C338.284 1038.21 340.561 1027.07 345.116 1017.63C349.833 1008.03 356.258 1000.55 364.392 995.184C372.688 989.816 382.366 987.132 393.428 987.132C403.676 987.132 412.541 989.816 420.024 995.184C427.669 1000.55 433.525 1008.03 437.592 1017.63C441.658 1027.07 443.692 1038.21 443.692 1051.06C443.692 1063.75 441.658 1074.89 437.592 1084.49C433.525 1094.08 427.669 1101.57 420.024 1106.94C412.541 1112.3 403.676 1114.99 393.428 1114.99ZM398.796 1094C405.628 1094 411.646 1092.21 416.852 1088.64C422.057 1084.89 426.124 1079.85 429.052 1073.51C431.98 1067 433.444 1059.52 433.444 1051.06C433.444 1042.6 431.98 1035.2 429.052 1028.86C426.124 1022.35 422.057 1017.31 416.852 1013.73C411.646 1009.99 405.546 1008.12 398.552 1008.12C391.394 1008.12 385.05 1009.99 379.52 1013.73C373.989 1017.31 369.678 1022.35 366.588 1028.86C363.497 1035.2 361.952 1042.6 361.952 1051.06C361.952 1059.52 363.497 1067 366.588 1073.51C369.841 1079.85 374.233 1084.89 379.764 1088.64C385.294 1092.21 391.638 1094 398.796 1094ZM618.891 1041.06L597.175 1032.76L652.563 941.26H680.379L618.891 1041.06ZM595.223 1112.06V1030.08H619.379V1112.06H595.223ZM595.711 1041.06L534.223 941.26H561.795L617.183 1032.76L595.711 1041.06ZM737.189 1114.99C724.989 1114.99 714.253 1112.3 704.981 1106.94C695.709 1101.4 688.389 1093.84 683.021 1084.24C677.816 1074.65 675.213 1063.58 675.213 1051.06C675.213 1038.53 677.816 1027.47 683.021 1017.88C688.227 1008.28 695.465 1000.8 704.737 995.428C714.009 989.897 724.664 987.132 736.701 987.132C748.739 987.132 759.393 989.897 768.665 995.428C777.937 1000.8 785.176 1008.28 790.381 1017.88C795.587 1027.47 798.189 1038.53 798.189 1051.06C798.189 1063.58 795.587 1074.65 790.381 1084.24C785.176 1093.84 777.937 1101.4 768.665 1106.94C759.556 1112.3 749.064 1114.99 737.189 1114.99ZM737.189 1093.76C744.509 1093.76 751.016 1091.97 756.709 1088.39C762.403 1084.65 766.795 1079.61 769.885 1073.26C773.139 1066.92 774.765 1059.52 774.765 1051.06C774.765 1042.6 773.139 1035.2 769.885 1028.86C766.795 1022.51 762.321 1017.55 756.465 1013.97C750.609 1010.23 744.021 1008.36 736.701 1008.36C729.219 1008.36 722.631 1010.23 716.937 1013.97C711.244 1017.55 706.771 1022.51 703.517 1028.86C700.264 1035.2 698.637 1042.6 698.637 1051.06C698.637 1059.52 700.264 1066.92 703.517 1073.26C706.771 1079.61 711.325 1084.65 717.181 1088.39C723.037 1091.97 729.707 1093.76 737.189 1093.76ZM906.544 1112.06L905.08 1089.61V990.06H928.016V1112.06H906.544ZM820.656 1052.52V990.06H843.836V1052.52H820.656ZM843.836 1052.52C843.836 1063.42 845.056 1071.8 847.496 1077.66C850.099 1083.51 853.678 1087.58 858.232 1089.86C862.787 1092.13 867.911 1093.35 873.604 1093.52C883.527 1093.52 891.254 1090.02 896.784 1083.02C902.315 1076.03 905.08 1066.19 905.08 1053.5H915.084C915.084 1066.35 913.132 1077.41 909.228 1086.68C905.487 1095.79 900.119 1102.79 893.124 1107.67C886.13 1112.55 877.59 1114.99 867.504 1114.99C858.07 1114.99 849.774 1113.04 842.616 1109.13C835.622 1105.23 830.172 1099.13 826.268 1090.83C822.527 1082.54 820.656 1071.8 820.656 1058.62V1052.52H843.836ZM974.51 1046.42C974.51 1033.25 977.031 1022.51 982.074 1014.22C987.117 1005.92 993.623 999.738 1001.59 995.672C1009.56 991.605 1017.94 989.572 1026.73 989.572V1011.53C1019.41 1011.53 1012.41 1012.67 1005.74 1014.95C999.235 1017.06 993.867 1020.64 989.638 1025.68C985.571 1030.56 983.538 1037.23 983.538 1045.69L974.51 1046.42ZM960.358 1112.06V990.06H983.538V1112.06H960.358ZM1110.61 1112.06V941.26H1135.25L1231.87 1072.04V941.26H1256.03V1112.06H1231.87L1134.52 980.056V1112.06H1110.61ZM1347.88 1114.99C1336 1114.99 1325.51 1112.3 1316.4 1106.94C1307.29 1101.4 1300.13 1093.84 1294.93 1084.24C1289.72 1074.65 1287.12 1063.58 1287.12 1051.06C1287.12 1038.53 1289.72 1027.47 1294.93 1017.88C1300.13 1008.28 1307.29 1000.8 1316.4 995.428C1325.67 989.897 1336.24 987.132 1348.12 987.132C1359.34 987.132 1369.18 989.978 1377.64 995.672C1386.1 1001.2 1392.69 1009.17 1397.41 1019.58C1402.29 1029.83 1404.73 1041.95 1404.73 1055.94H1306.15L1310.54 1052.28C1310.54 1060.9 1312.25 1068.38 1315.67 1074.73C1319.08 1081.07 1323.72 1085.95 1329.58 1089.37C1335.43 1092.62 1342.1 1094.25 1349.58 1094.25C1357.72 1094.25 1364.47 1092.38 1369.84 1088.64C1375.37 1084.73 1379.68 1079.85 1382.77 1074L1402.78 1083.27C1399.52 1089.61 1395.29 1095.22 1390.09 1100.1C1384.88 1104.82 1378.7 1108.48 1371.54 1111.08C1364.55 1113.69 1356.66 1114.99 1347.88 1114.99ZM1312.01 1041.3L1307.37 1037.64H1384.48L1380.08 1041.3C1380.08 1034.14 1378.62 1028.04 1375.69 1023C1372.76 1017.79 1368.86 1013.89 1363.98 1011.29C1359.1 1008.52 1353.65 1007.14 1347.63 1007.14C1341.78 1007.14 1336.08 1008.52 1330.55 1011.29C1325.18 1013.89 1320.71 1017.71 1317.13 1022.76C1313.72 1027.8 1312.01 1033.98 1312.01 1041.3ZM1411.82 1112.06L1461.84 1042.03L1496.73 990.06H1524.06L1476.97 1056.67L1439.63 1112.06H1411.82ZM1499.41 1112.06L1462.57 1056.67L1414.99 990.06H1442.32L1477.45 1042.03L1526.99 1112.06H1499.41ZM1592.67 1114.99C1580.47 1114.99 1571.03 1111.9 1564.36 1105.72C1557.7 1099.37 1554.36 1090.34 1554.36 1078.63V951.996H1577.54V1075.22C1577.54 1081.23 1579 1085.87 1581.93 1089.12C1585.02 1092.21 1589.42 1093.76 1595.11 1093.76C1596.74 1093.76 1598.52 1093.43 1600.48 1092.78C1602.43 1092.13 1604.79 1090.83 1607.55 1088.88L1616.34 1106.94C1612.11 1109.7 1608.04 1111.73 1604.14 1113.04C1600.4 1114.34 1596.57 1114.99 1592.67 1114.99ZM1533.62 1010.07V990.06H1612.19V1010.07H1533.62ZM1704.4 1112.06V941.26H1761.99C1773.37 941.26 1783.38 943.618 1792 948.336C1800.78 952.89 1807.62 959.316 1812.5 967.612C1817.54 975.745 1820.06 985.261 1820.06 996.16C1820.06 1006.73 1817.78 1016.17 1813.23 1024.46C1808.67 1032.76 1802.33 1039.27 1794.2 1043.98C1786.22 1048.7 1777.03 1051.06 1766.62 1051.06H1728.32V1112.06H1704.4ZM1728.32 1028.86H1766.38C1775 1028.86 1782.08 1025.85 1787.61 1019.83C1793.14 1013.65 1795.9 1005.76 1795.9 996.16C1795.9 986.237 1792.65 978.266 1786.14 972.248C1779.8 966.229 1771.67 963.22 1761.74 963.22H1728.32V1028.86ZM1893.3 1114.99C1881.43 1114.99 1870.93 1112.3 1861.83 1106.94C1852.72 1101.4 1845.56 1093.84 1840.35 1084.24C1835.15 1074.65 1832.55 1063.58 1832.55 1051.06C1832.55 1038.53 1835.15 1027.47 1840.35 1017.88C1845.56 1008.28 1852.72 1000.8 1861.83 995.428C1871.1 989.897 1881.67 987.132 1893.55 987.132C1904.77 987.132 1914.61 989.978 1923.07 995.672C1931.53 1001.2 1938.12 1009.17 1942.83 1019.58C1947.71 1029.83 1950.15 1041.95 1950.15 1055.94H1851.58L1855.97 1052.28C1855.97 1060.9 1857.68 1068.38 1861.09 1074.73C1864.51 1081.07 1869.15 1085.95 1875 1089.37C1880.86 1092.62 1887.53 1094.25 1895.01 1094.25C1903.14 1094.25 1909.89 1092.38 1915.26 1088.64C1920.79 1084.73 1925.1 1079.85 1928.19 1074L1948.2 1083.27C1944.95 1089.61 1940.72 1095.22 1935.51 1100.1C1930.31 1104.82 1924.13 1108.48 1916.97 1111.08C1909.97 1113.69 1902.09 1114.99 1893.3 1114.99ZM1857.43 1041.3L1852.8 1037.64H1929.9L1925.51 1041.3C1925.51 1034.14 1924.05 1028.04 1921.12 1023C1918.19 1017.79 1914.29 1013.89 1909.41 1011.29C1904.53 1008.52 1899.08 1007.14 1893.06 1007.14C1887.2 1007.14 1881.51 1008.52 1875.98 1011.29C1870.61 1013.89 1866.14 1017.71 1862.56 1022.76C1859.14 1027.8 1857.43 1033.98 1857.43 1041.3ZM1987.21 1046.42C1987.21 1033.25 1989.73 1022.51 1994.77 1014.22C1999.81 1005.92 2006.32 999.738 2014.29 995.672C2022.26 991.605 2030.64 989.572 2039.42 989.572V1011.53C2032.1 1011.53 2025.11 1012.67 2018.44 1014.95C2011.93 1017.06 2006.56 1020.64 2002.33 1025.68C1998.27 1030.56 1996.23 1037.23 1996.23 1045.69L1987.21 1046.42ZM1973.05 1112.06V990.06H1996.23V1112.06H1973.05ZM2070.32 1112.06V976.64C2070.32 963.789 2073.41 954.11 2079.59 947.604C2085.77 940.934 2095.13 937.6 2107.65 937.6C2111.39 937.6 2115.46 938.25 2119.85 939.552C2124.24 940.69 2128.72 942.317 2133.27 944.432L2124.73 962.244C2121.32 960.617 2118.31 959.478 2115.7 958.828C2113.26 958.014 2111.15 957.608 2109.36 957.608C2103.99 957.608 2100.01 959.397 2097.4 962.976C2094.8 966.392 2093.5 971.76 2093.5 979.08V1112.06H2070.32ZM2048.6 1009.34V990.06H2127.17V1009.34H2048.6ZM2202.35 1114.99C2190.48 1114.99 2179.99 1112.3 2170.88 1106.94C2161.77 1101.4 2154.61 1093.84 2149.4 1084.24C2144.2 1074.65 2141.6 1063.58 2141.6 1051.06C2141.6 1038.53 2144.2 1027.47 2149.4 1017.88C2154.61 1008.28 2161.77 1000.8 2170.88 995.428C2180.15 989.897 2190.72 987.132 2202.6 987.132C2213.82 987.132 2223.66 989.978 2232.12 995.672C2240.58 1001.2 2247.17 1009.17 2251.88 1019.58C2256.76 1029.83 2259.2 1041.95 2259.2 1055.94H2160.63L2165.02 1052.28C2165.02 1060.9 2166.73 1068.38 2170.14 1074.73C2173.56 1081.07 2178.2 1085.95 2184.05 1089.37C2189.91 1092.62 2196.58 1094.25 2204.06 1094.25C2212.19 1094.25 2218.94 1092.38 2224.31 1088.64C2229.84 1084.73 2234.15 1079.85 2237.24 1074L2257.25 1083.27C2254 1089.61 2249.77 1095.22 2244.56 1100.1C2239.36 1104.82 2233.18 1108.48 2226.02 1111.08C2219.03 1113.69 2211.14 1114.99 2202.35 1114.99ZM2166.48 1041.3L2161.85 1037.64H2238.95L2234.56 1041.3C2234.56 1034.14 2233.1 1028.04 2230.17 1023C2227.24 1017.79 2223.34 1013.89 2218.46 1011.29C2213.58 1008.52 2208.13 1007.14 2202.11 1007.14C2196.25 1007.14 2190.56 1008.52 2185.03 1011.29C2179.66 1013.89 2175.19 1017.71 2171.61 1022.76C2168.19 1027.8 2166.48 1033.98 2166.48 1041.3ZM2337.74 1114.99C2325.54 1114.99 2314.72 1112.3 2305.28 1106.94C2295.85 1101.4 2288.45 1093.84 2283.08 1084.24C2277.87 1074.65 2275.27 1063.58 2275.27 1051.06C2275.27 1038.53 2277.87 1027.47 2283.08 1017.88C2288.45 1008.28 2295.77 1000.8 2305.04 995.428C2314.47 989.897 2325.21 987.132 2337.25 987.132C2349.12 987.132 2359.78 989.897 2369.21 995.428C2378.81 1000.96 2385.97 1008.85 2390.68 1019.1L2369.7 1027.88C2366.61 1021.86 2362.14 1017.14 2356.28 1013.73C2350.59 1010.31 2344 1008.6 2336.52 1008.6C2329.2 1008.6 2322.69 1010.39 2317 1013.97C2311.3 1017.55 2306.83 1022.59 2303.58 1029.1C2300.32 1035.44 2298.7 1042.76 2298.7 1051.06C2298.7 1059.36 2300.32 1066.68 2303.58 1073.02C2306.83 1079.36 2311.38 1084.41 2317.24 1088.15C2323.1 1091.73 2329.68 1093.52 2337 1093.52C2344.49 1093.52 2351.16 1091.64 2357.01 1087.9C2362.87 1084 2367.26 1078.79 2370.19 1072.29L2391.42 1080.83C2386.7 1091.56 2379.54 1099.94 2369.94 1105.96C2360.51 1111.98 2349.77 1114.99 2337.74 1114.99ZM2461.44 1114.99C2449.24 1114.99 2439.81 1111.9 2433.14 1105.72C2426.47 1099.37 2423.13 1090.34 2423.13 1078.63V951.996H2446.31V1075.22C2446.31 1081.23 2447.78 1085.87 2450.71 1089.12C2453.8 1092.21 2458.19 1093.76 2463.88 1093.76C2465.51 1093.76 2467.3 1093.43 2469.25 1092.78C2471.2 1092.13 2473.56 1090.83 2476.33 1088.88L2485.11 1106.94C2480.88 1109.7 2476.81 1111.73 2472.91 1113.04C2469.17 1114.34 2465.35 1114.99 2461.44 1114.99ZM2402.39 1010.07V990.06H2480.96V1010.07H2402.39ZM2573.18 1112.06V941.26H2598.55L2655.16 1024.95L2711.52 941.26H2736.9V1112.06H2712.99V979.812L2654.92 1065.46L2597.09 980.056V1112.06H2573.18ZM2828.56 1114.99C2816.68 1114.99 2806.19 1112.3 2797.08 1106.94C2787.97 1101.4 2780.81 1093.84 2775.61 1084.24C2770.4 1074.65 2767.8 1063.58 2767.8 1051.06C2767.8 1038.53 2770.4 1027.47 2775.61 1017.88C2780.81 1008.28 2787.97 1000.8 2797.08 995.428C2806.35 989.897 2816.92 987.132 2828.8 987.132C2840.02 987.132 2849.86 989.978 2858.32 995.672C2866.78 1001.2 2873.37 1009.17 2878.09 1019.58C2882.97 1029.83 2885.41 1041.95 2885.41 1055.94H2786.83L2791.22 1052.28C2791.22 1060.9 2792.93 1068.38 2796.35 1074.73C2799.76 1081.07 2804.4 1085.95 2810.26 1089.37C2816.11 1092.62 2822.78 1094.25 2830.26 1094.25C2838.4 1094.25 2845.15 1092.38 2850.52 1088.64C2856.05 1084.73 2860.36 1079.85 2863.45 1074L2883.46 1083.27C2880.2 1089.61 2875.97 1095.22 2870.77 1100.1C2865.56 1104.82 2859.38 1108.48 2852.22 1111.08C2845.23 1113.69 2837.34 1114.99 2828.56 1114.99ZM2792.69 1041.3L2788.05 1037.64H2865.16L2860.76 1041.3C2860.76 1034.14 2859.3 1028.04 2856.37 1023C2853.44 1017.79 2849.54 1013.89 2844.66 1011.29C2839.78 1008.52 2834.33 1007.14 2828.31 1007.14C2822.46 1007.14 2816.76 1008.52 2811.23 1011.29C2805.86 1013.89 2801.39 1017.71 2797.81 1022.76C2794.4 1027.8 2792.69 1033.98 2792.69 1041.3ZM2983.22 1112.06L2982.24 1090.83V1048.38C2982.24 1039.43 2981.18 1031.95 2979.07 1025.93C2977.12 1019.91 2974.02 1015.35 2969.8 1012.26C2965.73 1009.17 2960.28 1007.63 2953.45 1007.63C2947.1 1007.63 2941.57 1008.93 2936.86 1011.53C2932.3 1014.13 2928.48 1018.2 2925.39 1023.73L2904.89 1015.92C2907.82 1010.39 2911.48 1005.51 2915.87 1001.28C2920.26 996.892 2925.55 993.476 2931.73 991.036C2937.91 988.433 2945.15 987.132 2953.45 987.132C2965 987.132 2974.59 989.409 2982.24 993.964C2989.88 998.518 2995.58 1005.11 2999.32 1013.73C3003.22 1022.35 3005.09 1033 3004.93 1045.69L3004.69 1112.06H2983.22ZM2947.35 1114.99C2932.87 1114.99 2921.56 1111.73 2913.43 1105.23C2905.46 1098.56 2901.48 1089.37 2901.48 1077.66C2901.48 1065.13 2905.62 1055.61 2913.92 1049.11C2922.38 1042.44 2934.09 1039.1 2949.06 1039.1H2982.97V1057.4H2955.4C2944.18 1057.4 2936.29 1059.19 2931.73 1062.77C2927.18 1066.19 2924.9 1070.99 2924.9 1077.17C2924.9 1082.86 2927.01 1087.33 2931.24 1090.59C2935.64 1093.68 2941.65 1095.22 2949.3 1095.22C2955.97 1095.22 2961.74 1093.84 2966.62 1091.08C2971.5 1088.15 2975.33 1084.08 2978.09 1078.88C2980.86 1073.67 2982.24 1067.73 2982.24 1061.06H2990.29C2990.29 1077.66 2986.71 1090.83 2979.56 1100.59C2972.56 1110.19 2961.82 1114.99 2947.35 1114.99ZM3034.12 1112.06V941.26H3057.3V1112.06H3034.12Z" fill="#FF5733"/>
<path d="M519.46 337.583C564.056 344.268 592.135 392.929 586.059 435.466C584.154 448.828 579.244 461.584 571.698 472.775C564.152 483.965 554.166 493.299 542.491 500.073C532.962 505.504 512.639 506.777 507.117 516.358C499.281 529.956 497.137 549.089 492.542 564.057C480.388 603.594 466.632 658.932 454.312 698.406C440.008 757.439 402.901 757.55 402.901 757.55C402.901 757.55 249.968 763.991 197.023 757.55C166.637 753.852 152.941 724.086 144.569 698.406C125.681 640.467 115.517 578.887 94.0921 521.87C88.9523 508.197 72.5579 510.826 60.7602 506.961C43.6607 501.228 28.7616 490.33 18.1178 475.771C-34.6794 402.798 39.9169 316.928 120.252 339.502C121.211 294.501 163.146 259.837 206.619 258.997C224.416 258.653 240.46 265.739 256.52 272.328C284.885 194.97 394.036 180.861 456.124 220.68C497.108 246.967 515.762 290.724 519.46 337.583Z" fill="#FF5733"/>
<path d="M728.37 760.413V200.413H847.57L1010.77 442.013L1173.97 200.413H1292.37V760.413H1183.57V371.613L1010.77 626.013L837.97 372.413V760.413H728.37ZM1663.11 760.413L1656.71 686.813V360.413H1762.31V760.413H1663.11ZM1391.91 565.213V360.413H1497.51V565.213H1391.91ZM1497.51 565.213C1497.51 591.88 1500.44 612.946 1506.31 628.413C1512.71 643.346 1521.51 654.28 1532.71 661.213C1544.44 667.613 1557.51 670.813 1571.91 670.813C1599.64 671.346 1620.71 663.08 1635.11 646.013C1649.51 628.413 1656.71 603.08 1656.71 570.013H1692.71C1692.71 612.68 1686.31 648.946 1673.51 678.813C1660.71 708.146 1643.11 730.813 1620.71 746.813C1598.31 762.28 1571.91 770.013 1541.51 770.013C1509.51 770.013 1482.31 763.613 1459.91 750.813C1437.51 738.013 1420.44 718.28 1408.71 691.613C1397.51 664.413 1391.91 629.48 1391.91 586.813V565.213H1497.51ZM1893.8 760.413V320.413C1893.8 277.746 1904.73 244.68 1926.6 221.213C1948.46 197.213 1981.8 185.213 2026.6 185.213C2042.06 185.213 2058.33 187.88 2075.4 193.213C2093 198.546 2109 204.946 2123.4 212.413L2084.2 288.413C2075.66 284.146 2067.93 280.946 2061 278.813C2054.06 276.68 2047.66 275.613 2041.8 275.613C2027.4 275.613 2016.73 280.68 2009.8 290.813C2002.86 300.413 1999.4 316.146 1999.4 338.013V760.413H1893.8ZM1827.4 445.213V360.413H2097.8V445.213H1827.4ZM2207.86 760.413V320.413C2207.86 277.746 2218.79 244.68 2240.66 221.213C2262.52 197.213 2295.86 185.213 2340.66 185.213C2356.12 185.213 2372.39 187.88 2389.46 193.213C2407.06 198.546 2423.06 204.946 2437.46 212.413L2398.26 288.413C2389.72 284.146 2381.99 280.946 2375.06 278.813C2368.12 276.68 2361.72 275.613 2355.86 275.613C2341.46 275.613 2330.79 280.68 2323.86 290.813C2316.92 300.413 2313.46 316.146 2313.46 338.013V760.413H2207.86ZM2141.46 445.213V360.413H2411.86V445.213H2141.46ZM2488.32 760.413V360.413H2593.92V760.413H2488.32ZM2541.12 295.613C2525.12 295.613 2510.99 289.746 2498.72 278.013C2486.45 265.746 2480.32 251.346 2480.32 234.813C2480.32 218.28 2486.45 204.146 2498.72 192.413C2510.99 180.146 2525.12 174.013 2541.12 174.013C2557.65 174.013 2571.79 180.146 2583.52 192.413C2595.79 204.146 2601.92 218.28 2601.92 234.813C2601.92 251.346 2595.79 265.746 2583.52 278.013C2571.79 289.746 2557.65 295.613 2541.12 295.613ZM2691.3 760.413V360.413H2790.5L2796.9 434.013V760.413H2691.3ZM2956.1 760.413V555.613H3061.7V760.413H2956.1ZM2956.1 555.613C2956.1 528.413 2952.9 507.346 2946.5 492.413C2940.63 477.48 2932.1 466.813 2920.9 460.413C2909.7 453.48 2896.63 450.013 2881.7 450.013C2854.5 449.48 2833.43 457.746 2818.5 474.813C2804.1 491.88 2796.9 517.213 2796.9 550.813H2761.7C2761.7 508.146 2767.83 472.146 2780.1 442.813C2792.9 412.946 2810.5 390.28 2832.9 374.813C2855.83 358.813 2882.5 350.813 2912.9 350.813C2944.36 350.813 2971.3 357.213 2993.7 370.013C3016.1 382.813 3033.16 402.813 3044.9 430.013C3056.63 456.68 3062.23 491.346 3061.7 534.013V555.613H2956.1Z" fill="#FF5733"/>
</svg>
