<svg xmlns="http://www.w3.org/2000/svg" viewBox="0 0 128 128">
  <path fill="#F2C811" d="M74.7 56.3h22.8v44.4H74.7V56.3z"/>
  <path fill="#F2C811" d="M45.8 56.3h22.8v44.4H45.8V56.3z"/>
  <path fill="#F2C811" d="M45.8 27.4h22.8v22.8H45.8V27.4z"/>
  <path fill="#F2C811" d="M16.9 56.3h22.8v44.4H16.9V56.3z"/>
  <path fill="#EDBA0A" d="M74.7 56.3h22.8v44.4H74.7z"/>
  <path fill="#EDBA0A" d="M45.8 56.3h22.8v44.4H45.8z"/>
  <path fill="#EDBA0A" d="M45.8 27.4h22.8v22.8H45.8z"/>
  <path fill="#EDBA0A" d="M16.9 56.3h22.8v44.4H16.9z"/>
  <path fill="#F6D751" d="M74.7 56.3h22.8v44.4H74.7z"/>
  <path fill="#F6D751" d="M45.8 56.3h22.8v44.4H45.8z"/>
  <path fill="#F6D751" d="M45.8 27.4h22.8v22.8H45.8z"/>
  <path fill="#F6D751" d="M16.9 56.3h22.8v44.4H16.9z"/>
  <path fill="#E9A110" d="M74.7 56.3h22.8v44.4H74.7V56.3z"/>
  <path fill="#E9A110" d="M45.8 56.3h22.8v44.4H45.8V56.3z"/>
  <path fill="#E9A110" d="M45.8 27.4h22.8v22.8H45.8V27.4z"/>
  <path fill="#E9A110" d="M16.9 56.3h22.8v44.4H16.9V56.3z"/>
  <path fill="#EDC60A" d="M74.7 56.3h22.8v44.4H74.7z"/>
  <path fill="#EDC60A" d="M45.8 56.3h22.8v44.4H45.8z"/>
  <path fill="#EDC60A" d="M45.8 27.4h22.8v22.8H45.8z"/>
  <path fill="#EDC60A" d="M16.9 56.3h22.8v44.4H16.9z"/>
  <path fill="#F2C811" d="M74.7 56.3h22.8v44.4H74.7z"/>
  <path fill="#F2C811" d="M45.8 56.3h22.8v44.4H45.8z"/>
  <path fill="#F2C811" d="M45.8 27.4h22.8v22.8H45.8z"/>
  <path fill="#F2C811" d="M16.9 56.3h22.8v44.4H16.9z"/>
  <path fill="#F6D751" d="M74.7 56.3h22.8v44.4H74.7z"/>
  <path fill="#F6D751" d="M45.8 56.3h22.8v44.4H45.8z"/>
  <path fill="#F6D751" d="M45.8 27.4h22.8v22.8H45.8z"/>
  <path fill="#F6D751" d="M16.9 56.3h22.8v44.4H16.9z"/>
</svg> 