<svg xmlns="http://www.w3.org/2000/svg" viewBox="0 0 128 128">
  <path fill="#E97627" d="M12.5 0h21.4v12.5H12.5V0zM50 13.9h15v15H50v-15zM50 35.3h15v15H50v-15zM50 56.8h15v15H50v-15zM50 78.2h15v15H50v-15zM50 99.6h15v15H50v-15zM71.4 13.9h15v15h-15v-15zM71.4 35.3h15v15h-15v-15zM71.4 56.8h15v15h-15v-15zM71.4 78.2h15v15h-15v-15zM71.4 99.6h15v15h-15v-15zM92.9 13.9h15v15h-15v-15zM92.9 35.3h15v15h-15v-15zM92.9 56.8h15v15h-15v-15zM92.9 78.2h15v15h-15v-15zM92.9 99.6h15v15h-15v-15zM28.6 13.9h15v15h-15v-15zM28.6 35.3h15v15h-15v-15zM28.6 56.8h15v15h-15v-15zM28.6 78.2h15v15h-15v-15zM28.6 99.6h15v15h-15v-15zM50 0h15v7.5H50V0zM71.4 0h15v7.5h-15V0zM92.9 0h15v7.5h-15V0zM114.3 0h13.7v7.5h-13.7V0zM114.3 13.9h13.7v15h-13.7v-15zM114.3 35.3h13.7v15h-13.7v-15zM114.3 56.8h13.7v15h-13.7v-15zM114.3 78.2h13.7v15h-13.7v-15zM114.3 99.6h13.7v15h-13.7v-15zM0 13.9h7.5v15H0v-15zM0 35.3h7.5v15H0v-15zM0 56.8h7.5v15H0v-15zM0 78.2h7.5v15H0v-15zM0 99.6h7.5v15H0v-15zM28.6 0h15v7.5h-15V0zM0 0h7.5v7.5H0V0zM50 120.5h15v7.5H50v-7.5zM71.4 120.5h15v7.5h-15v-7.5zM92.9 120.5h15v7.5h-15v-7.5zM114.3 120.5h13.7v7.5h-13.7v-7.5zM0 120.5h7.5v7.5H0v-7.5zM28.6 120.5h15v7.5h-15v-7.5z"/>
</svg> 